solid ASCII
  facet normal 3.836834e-17 1.000000e+00 -2.960595e-17
    outer loop
      vertex   3.000000e+00 3.000000e+00 7.500000e+01
      vertex   6.087183e+01 3.000000e+00 7.500000e+01
      vertex   3.000000e+00 3.000000e+00 0.000000e+00
    endloop
  endfacet
  facet normal 0.000000e+00 1.000000e+00 0.000000e+00
    outer loop
      vertex   3.000000e+00 3.000000e+00 0.000000e+00
      vertex   6.087183e+01 3.000000e+00 7.500000e+01
      vertex   6.087183e+01 3.000000e+00 0.000000e+00
    endloop
  endfacet
  facet normal -1.000000e+00 0.000000e+00 0.000000e+00
    outer loop
      vertex   6.087183e+01 3.000000e+00 7.500000e+01
      vertex   6.087183e+01 4.700000e+01 7.500000e+01
      vertex   6.087183e+01 3.000000e+00 0.000000e+00
    endloop
  endfacet
  facet normal -1.000000e+00 0.000000e+00 0.000000e+00
    outer loop
      vertex   6.087183e+01 3.000000e+00 0.000000e+00
      vertex   6.087183e+01 4.700000e+01 7.500000e+01
      vertex   6.087183e+01 4.700000e+01 0.000000e+00
    endloop
  endfacet
  facet normal -0.000000e+00 -1.000000e+00 -0.000000e+00
    outer loop
      vertex   6.087183e+01 4.700000e+01 7.500000e+01
      vertex   3.000000e+00 4.700000e+01 7.500000e+01
      vertex   6.087183e+01 4.700000e+01 0.000000e+00
    endloop
  endfacet
  facet normal 0.000000e+00 -1.000000e+00 0.000000e+00
    outer loop
      vertex   6.087183e+01 4.700000e+01 0.000000e+00
      vertex   3.000000e+00 4.700000e+01 7.500000e+01
      vertex   3.000000e+00 4.700000e+01 0.000000e+00
    endloop
  endfacet
  facet normal 1.000000e+00 -1.513940e-16 0.000000e+00
    outer loop
      vertex   3.000000e+00 4.700000e+01 7.500000e+01
      vertex   3.000000e+00 3.000000e+00 7.500000e+01
      vertex   3.000000e+00 4.700000e+01 0.000000e+00
    endloop
  endfacet
  facet normal 1.000000e+00 -1.513940e-16 0.000000e+00
    outer loop
      vertex   3.000000e+00 4.700000e+01 0.000000e+00
      vertex   3.000000e+00 3.000000e+00 7.500000e+01
      vertex   3.000000e+00 3.000000e+00 0.000000e+00
    endloop
  endfacet
  facet normal -1.000000e+00 0.000000e+00 0.000000e+00
    outer loop
      vertex   1.360955e+02 3.000000e+00 7.500000e+01
      vertex   1.360955e+02 4.700000e+01 7.500000e+01
      vertex   1.360955e+02 3.000000e+00 0.000000e+00
    endloop
  endfacet
  facet normal -1.000000e+00 0.000000e+00 0.000000e+00
    outer loop
      vertex   1.360955e+02 3.000000e+00 0.000000e+00
      vertex   1.360955e+02 4.700000e+01 7.500000e+01
      vertex   1.360955e+02 4.700000e+01 0.000000e+00
    endloop
  endfacet
  facet normal -0.000000e+00 -1.000000e+00 -0.000000e+00
    outer loop
      vertex   1.360955e+02 4.700000e+01 7.500000e+01
      vertex   6.387183e+01 4.700000e+01 7.500000e+01
      vertex   1.360955e+02 4.700000e+01 0.000000e+00
    endloop
  endfacet
  facet normal 0.000000e+00 -1.000000e+00 0.000000e+00
    outer loop
      vertex   1.360955e+02 4.700000e+01 0.000000e+00
      vertex   6.387183e+01 4.700000e+01 7.500000e+01
      vertex   6.387183e+01 4.700000e+01 0.000000e+00
    endloop
  endfacet
  facet normal 1.000000e+00 0.000000e+00 0.000000e+00
    outer loop
      vertex   6.387183e+01 4.700000e+01 7.500000e+01
      vertex   6.387183e+01 3.000000e+00 7.500000e+01
      vertex   6.387183e+01 4.700000e+01 0.000000e+00
    endloop
  endfacet
  facet normal 1.000000e+00 0.000000e+00 0.000000e+00
    outer loop
      vertex   6.387183e+01 4.700000e+01 0.000000e+00
      vertex   6.387183e+01 3.000000e+00 7.500000e+01
      vertex   6.387183e+01 3.000000e+00 0.000000e+00
    endloop
  endfacet
  facet normal 3.074403e-17 1.000000e+00 0.000000e+00
    outer loop
      vertex   6.387183e+01 3.000000e+00 7.500000e+01
      vertex   1.360955e+02 3.000000e+00 7.500000e+01
      vertex   6.387183e+01 3.000000e+00 0.000000e+00
    endloop
  endfacet
  facet normal 3.074403e-17 1.000000e+00 0.000000e+00
    outer loop
      vertex   6.387183e+01 3.000000e+00 0.000000e+00
      vertex   1.360955e+02 3.000000e+00 7.500000e+01
      vertex   1.360955e+02 3.000000e+00 0.000000e+00
    endloop
  endfacet
  facet normal -3.834668e-17 1.000000e+00 0.000000e+00
    outer loop
      vertex   1.390955e+02 3.000000e+00 7.500000e+01
      vertex   1.970000e+02 3.000000e+00 7.500000e+01
      vertex   1.390955e+02 3.000000e+00 0.000000e+00
    endloop
  endfacet
  facet normal 0.000000e+00 1.000000e+00 -2.960595e-17
    outer loop
      vertex   1.390955e+02 3.000000e+00 0.000000e+00
      vertex   1.970000e+02 3.000000e+00 7.500000e+01
      vertex   1.970000e+02 3.000000e+00 0.000000e+00
    endloop
  endfacet
  facet normal -1.000000e+00 0.000000e+00 -0.000000e+00
    outer loop
      vertex   1.970000e+02 3.000000e+00 7.500000e+01
      vertex   1.970000e+02 4.700000e+01 7.500000e+01
      vertex   1.970000e+02 3.000000e+00 0.000000e+00
    endloop
  endfacet
  facet normal -1.000000e+00 0.000000e+00 0.000000e+00
    outer loop
      vertex   1.970000e+02 3.000000e+00 0.000000e+00
      vertex   1.970000e+02 4.700000e+01 7.500000e+01
      vertex   1.970000e+02 4.700000e+01 0.000000e+00
    endloop
  endfacet
  facet normal -0.000000e+00 -1.000000e+00 -0.000000e+00
    outer loop
      vertex   1.970000e+02 4.700000e+01 7.500000e+01
      vertex   1.390955e+02 4.700000e+01 7.500000e+01
      vertex   1.970000e+02 4.700000e+01 0.000000e+00
    endloop
  endfacet
  facet normal 0.000000e+00 -1.000000e+00 0.000000e+00
    outer loop
      vertex   1.970000e+02 4.700000e+01 0.000000e+00
      vertex   1.390955e+02 4.700000e+01 7.500000e+01
      vertex   1.390955e+02 4.700000e+01 0.000000e+00
    endloop
  endfacet
  facet normal 1.000000e+00 0.000000e+00 0.000000e+00
    outer loop
      vertex   1.390955e+02 4.700000e+01 7.500000e+01
      vertex   1.390955e+02 3.000000e+00 7.500000e+01
      vertex   1.390955e+02 4.700000e+01 0.000000e+00
    endloop
  endfacet
  facet normal 1.000000e+00 0.000000e+00 0.000000e+00
    outer loop
      vertex   1.390955e+02 4.700000e+01 0.000000e+00
      vertex   1.390955e+02 3.000000e+00 7.500000e+01
      vertex   1.390955e+02 3.000000e+00 0.000000e+00
    endloop
  endfacet
  facet normal 0.000000e+00 -1.000000e+00 0.000000e+00
    outer loop
      vertex   0.000000e+00 0.000000e+00 0.000000e+00
      vertex   2.000000e+02 0.000000e+00 0.000000e+00
      vertex   0.000000e+00 0.000000e+00 7.500000e+01
    endloop
  endfacet
  facet normal 0.000000e+00 -1.000000e+00 0.000000e+00
    outer loop
      vertex   0.000000e+00 0.000000e+00 7.500000e+01
      vertex   2.000000e+02 0.000000e+00 0.000000e+00
      vertex   2.000000e+02 0.000000e+00 7.500000e+01
    endloop
  endfacet
  facet normal -1.000000e+00 0.000000e+00 0.000000e+00
    outer loop
      vertex   0.000000e+00 5.000000e+01 0.000000e+00
      vertex   0.000000e+00 0.000000e+00 0.000000e+00
      vertex   0.000000e+00 5.000000e+01 7.500000e+01
    endloop
  endfacet
  facet normal -1.000000e+00 -0.000000e+00 0.000000e+00
    outer loop
      vertex   0.000000e+00 5.000000e+01 7.500000e+01
      vertex   0.000000e+00 0.000000e+00 0.000000e+00
      vertex   0.000000e+00 0.000000e+00 7.500000e+01
    endloop
  endfacet
  facet normal 0.000000e+00 1.000000e+00 -0.000000e+00
    outer loop
      vertex   2.000000e+02 5.000000e+01 0.000000e+00
      vertex   0.000000e+00 5.000000e+01 0.000000e+00
      vertex   2.000000e+02 5.000000e+01 7.500000e+01
    endloop
  endfacet
  facet normal 0.000000e+00 1.000000e+00 0.000000e+00
    outer loop
      vertex   2.000000e+02 5.000000e+01 7.500000e+01
      vertex   0.000000e+00 5.000000e+01 0.000000e+00
      vertex   0.000000e+00 5.000000e+01 7.500000e+01
    endloop
  endfacet
  facet normal 1.000000e+00 0.000000e+00 0.000000e+00
    outer loop
      vertex   2.000000e+02 0.000000e+00 0.000000e+00
      vertex   2.000000e+02 5.000000e+01 0.000000e+00
      vertex   2.000000e+02 0.000000e+00 7.500000e+01
    endloop
  endfacet
  facet normal 1.000000e+00 -0.000000e+00 0.000000e+00
    outer loop
      vertex   2.000000e+02 0.000000e+00 7.500000e+01
      vertex   2.000000e+02 5.000000e+01 0.000000e+00
      vertex   2.000000e+02 5.000000e+01 7.500000e+01
    endloop
  endfacet
  facet normal 0.000000e+00 0.000000e+00 1.000000e+00
    outer loop
      vertex   3.000000e+00 3.000000e+00 7.500000e+01
      vertex   0.000000e+00 0.000000e+00 7.500000e+01
      vertex   6.087183e+01 3.000000e+00 7.500000e+01
    endloop
  endfacet
  facet normal -0.000000e+00 0.000000e+00 1.000000e+00
    outer loop
      vertex   6.087183e+01 3.000000e+00 7.500000e+01
      vertex   0.000000e+00 0.000000e+00 7.500000e+01
      vertex   6.387183e+01 3.000000e+00 7.500000e+01
    endloop
  endfacet
  facet normal 0.000000e+00 0.000000e+00 1.000000e+00
    outer loop
      vertex   6.087183e+01 3.000000e+00 7.500000e+01
      vertex   6.387183e+01 3.000000e+00 7.500000e+01
      vertex   6.087183e+01 4.700000e+01 7.500000e+01
    endloop
  endfacet
  facet normal -0.000000e+00 0.000000e+00 1.000000e+00
    outer loop
      vertex   6.087183e+01 4.700000e+01 7.500000e+01
      vertex   6.387183e+01 3.000000e+00 7.500000e+01
      vertex   6.387183e+01 4.700000e+01 7.500000e+01
    endloop
  endfacet
  facet normal 0.000000e+00 -0.000000e+00 1.000000e+00
    outer loop
      vertex   6.087183e+01 4.700000e+01 7.500000e+01
      vertex   6.387183e+01 4.700000e+01 7.500000e+01
      vertex   0.000000e+00 5.000000e+01 7.500000e+01
    endloop
  endfacet
  facet normal 0.000000e+00 0.000000e+00 1.000000e+00
    outer loop
      vertex   0.000000e+00 5.000000e+01 7.500000e+01
      vertex   6.387183e+01 4.700000e+01 7.500000e+01
      vertex   1.360955e+02 4.700000e+01 7.500000e+01
    endloop
  endfacet
  facet normal -0.000000e+00 0.000000e+00 1.000000e+00
    outer loop
      vertex   0.000000e+00 5.000000e+01 7.500000e+01
      vertex   1.360955e+02 4.700000e+01 7.500000e+01
      vertex   2.000000e+02 5.000000e+01 7.500000e+01
    endloop
  endfacet
  facet normal 0.000000e+00 0.000000e+00 1.000000e+00
    outer loop
      vertex   2.000000e+02 5.000000e+01 7.500000e+01
      vertex   1.360955e+02 4.700000e+01 7.500000e+01
      vertex   1.390955e+02 4.700000e+01 7.500000e+01
    endloop
  endfacet
  facet normal 0.000000e+00 0.000000e+00 1.000000e+00
    outer loop
      vertex   2.000000e+02 5.000000e+01 7.500000e+01
      vertex   1.390955e+02 4.700000e+01 7.500000e+01
      vertex   1.970000e+02 4.700000e+01 7.500000e+01
    endloop
  endfacet
  facet normal 0.000000e+00 -0.000000e+00 1.000000e+00
    outer loop
      vertex   3.000000e+00 3.000000e+00 7.500000e+01
      vertex   3.000000e+00 4.700000e+01 7.500000e+01
      vertex   0.000000e+00 0.000000e+00 7.500000e+01
    endloop
  endfacet
  facet normal 0.000000e+00 0.000000e+00 1.000000e+00
    outer loop
      vertex   0.000000e+00 0.000000e+00 7.500000e+01
      vertex   3.000000e+00 4.700000e+01 7.500000e+01
      vertex   0.000000e+00 5.000000e+01 7.500000e+01
    endloop
  endfacet
  facet normal 0.000000e+00 0.000000e+00 1.000000e+00
    outer loop
      vertex   0.000000e+00 5.000000e+01 7.500000e+01
      vertex   3.000000e+00 4.700000e+01 7.500000e+01
      vertex   6.087183e+01 4.700000e+01 7.500000e+01
    endloop
  endfacet
  facet normal 0.000000e+00 0.000000e+00 1.000000e+00
    outer loop
      vertex   1.390955e+02 4.700000e+01 7.500000e+01
      vertex   1.360955e+02 4.700000e+01 7.500000e+01
      vertex   1.390955e+02 3.000000e+00 7.500000e+01
    endloop
  endfacet
  facet normal 0.000000e+00 0.000000e+00 1.000000e+00
    outer loop
      vertex   1.390955e+02 3.000000e+00 7.500000e+01
      vertex   1.360955e+02 4.700000e+01 7.500000e+01
      vertex   1.360955e+02 3.000000e+00 7.500000e+01
    endloop
  endfacet
  facet normal 0.000000e+00 0.000000e+00 1.000000e+00
    outer loop
      vertex   1.390955e+02 3.000000e+00 7.500000e+01
      vertex   1.360955e+02 3.000000e+00 7.500000e+01
      vertex   2.000000e+02 0.000000e+00 7.500000e+01
    endloop
  endfacet
  facet normal 0.000000e+00 0.000000e+00 1.000000e+00
    outer loop
      vertex   2.000000e+02 0.000000e+00 7.500000e+01
      vertex   1.360955e+02 3.000000e+00 7.500000e+01
      vertex   0.000000e+00 0.000000e+00 7.500000e+01
    endloop
  endfacet
  facet normal 0.000000e+00 0.000000e+00 1.000000e+00
    outer loop
      vertex   0.000000e+00 0.000000e+00 7.500000e+01
      vertex   1.360955e+02 3.000000e+00 7.500000e+01
      vertex   6.387183e+01 3.000000e+00 7.500000e+01
    endloop
  endfacet
  facet normal 0.000000e+00 0.000000e+00 1.000000e+00
    outer loop
      vertex   1.970000e+02 4.700000e+01 7.500000e+01
      vertex   1.970000e+02 3.000000e+00 7.500000e+01
      vertex   2.000000e+02 0.000000e+00 7.500000e+01
    endloop
  endfacet
  facet normal 0.000000e+00 0.000000e+00 1.000000e+00
    outer loop
      vertex   2.000000e+02 0.000000e+00 7.500000e+01
      vertex   1.970000e+02 3.000000e+00 7.500000e+01
      vertex   1.390955e+02 3.000000e+00 7.500000e+01
    endloop
  endfacet
  facet normal 0.000000e+00 0.000000e+00 1.000000e+00
    outer loop
      vertex   2.000000e+02 5.000000e+01 7.500000e+01
      vertex   1.970000e+02 4.700000e+01 7.500000e+01
      vertex   2.000000e+02 0.000000e+00 7.500000e+01
    endloop
  endfacet
  facet normal 0.000000e+00 0.000000e+00 -1.000000e+00
    outer loop
      vertex   3.000000e+00 4.700000e+01 0.000000e+00
      vertex   3.000000e+00 3.000000e+00 0.000000e+00
      vertex   0.000000e+00 0.000000e+00 0.000000e+00
    endloop
  endfacet
  facet normal 0.000000e+00 0.000000e+00 -1.000000e+00
    outer loop
      vertex   0.000000e+00 0.000000e+00 0.000000e+00
      vertex   3.000000e+00 3.000000e+00 0.000000e+00
      vertex   6.087183e+01 3.000000e+00 0.000000e+00
    endloop
  endfacet
  facet normal 0.000000e+00 0.000000e+00 -1.000000e+00
    outer loop
      vertex   0.000000e+00 0.000000e+00 0.000000e+00
      vertex   6.087183e+01 3.000000e+00 0.000000e+00
      vertex   6.387183e+01 3.000000e+00 0.000000e+00
    endloop
  endfacet
  facet normal -0.000000e+00 0.000000e+00 -1.000000e+00
    outer loop
      vertex   6.387183e+01 3.000000e+00 0.000000e+00
      vertex   6.087183e+01 3.000000e+00 0.000000e+00
      vertex   6.387183e+01 4.700000e+01 0.000000e+00
    endloop
  endfacet
  facet normal -0.000000e+00 0.000000e+00 -1.000000e+00
    outer loop
      vertex   6.387183e+01 4.700000e+01 0.000000e+00
      vertex   6.087183e+01 3.000000e+00 0.000000e+00
      vertex   6.087183e+01 4.700000e+01 0.000000e+00
    endloop
  endfacet
  facet normal 0.000000e+00 0.000000e+00 -1.000000e+00
    outer loop
      vertex   6.387183e+01 4.700000e+01 0.000000e+00
      vertex   6.087183e+01 4.700000e+01 0.000000e+00
      vertex   0.000000e+00 5.000000e+01 0.000000e+00
    endloop
  endfacet
  facet normal 0.000000e+00 0.000000e+00 -1.000000e+00
    outer loop
      vertex   0.000000e+00 5.000000e+01 0.000000e+00
      vertex   6.087183e+01 4.700000e+01 0.000000e+00
      vertex   3.000000e+00 4.700000e+01 0.000000e+00
    endloop
  endfacet
  facet normal 0.000000e+00 0.000000e+00 -1.000000e+00
    outer loop
      vertex   0.000000e+00 5.000000e+01 0.000000e+00
      vertex   3.000000e+00 4.700000e+01 0.000000e+00
      vertex   0.000000e+00 0.000000e+00 0.000000e+00
    endloop
  endfacet
  facet normal 0.000000e+00 0.000000e+00 -1.000000e+00
    outer loop
      vertex   1.360955e+02 4.700000e+01 0.000000e+00
      vertex   1.390955e+02 4.700000e+01 0.000000e+00
      vertex   1.360955e+02 3.000000e+00 0.000000e+00
    endloop
  endfacet
  facet normal 0.000000e+00 0.000000e+00 -1.000000e+00
    outer loop
      vertex   1.360955e+02 3.000000e+00 0.000000e+00
      vertex   1.390955e+02 4.700000e+01 0.000000e+00
      vertex   1.390955e+02 3.000000e+00 0.000000e+00
    endloop
  endfacet
  facet normal 0.000000e+00 0.000000e+00 -1.000000e+00
    outer loop
      vertex   1.360955e+02 3.000000e+00 0.000000e+00
      vertex   1.390955e+02 3.000000e+00 0.000000e+00
      vertex   2.000000e+02 0.000000e+00 0.000000e+00
    endloop
  endfacet
  facet normal 0.000000e+00 0.000000e+00 -1.000000e+00
    outer loop
      vertex   2.000000e+02 0.000000e+00 0.000000e+00
      vertex   1.390955e+02 3.000000e+00 0.000000e+00
      vertex   1.970000e+02 3.000000e+00 0.000000e+00
    endloop
  endfacet
  facet normal 0.000000e+00 0.000000e+00 -1.000000e+00
    outer loop
      vertex   2.000000e+02 0.000000e+00 0.000000e+00
      vertex   1.970000e+02 3.000000e+00 0.000000e+00
      vertex   1.970000e+02 4.700000e+01 0.000000e+00
    endloop
  endfacet
  facet normal 0.000000e+00 0.000000e+00 -1.000000e+00
    outer loop
      vertex   6.387183e+01 4.700000e+01 0.000000e+00
      vertex   0.000000e+00 5.000000e+01 0.000000e+00
      vertex   1.360955e+02 4.700000e+01 0.000000e+00
    endloop
  endfacet
  facet normal 0.000000e+00 0.000000e+00 -1.000000e+00
    outer loop
      vertex   1.360955e+02 4.700000e+01 0.000000e+00
      vertex   0.000000e+00 5.000000e+01 0.000000e+00
      vertex   2.000000e+02 5.000000e+01 0.000000e+00
    endloop
  endfacet
  facet normal 0.000000e+00 0.000000e+00 -1.000000e+00
    outer loop
      vertex   1.360955e+02 4.700000e+01 0.000000e+00
      vertex   2.000000e+02 5.000000e+01 0.000000e+00
      vertex   1.390955e+02 4.700000e+01 0.000000e+00
    endloop
  endfacet
  facet normal 0.000000e+00 0.000000e+00 -1.000000e+00
    outer loop
      vertex   1.390955e+02 4.700000e+01 0.000000e+00
      vertex   2.000000e+02 5.000000e+01 0.000000e+00
      vertex   1.970000e+02 4.700000e+01 0.000000e+00
    endloop
  endfacet
  facet normal 0.000000e+00 0.000000e+00 -1.000000e+00
    outer loop
      vertex   1.970000e+02 4.700000e+01 0.000000e+00
      vertex   2.000000e+02 5.000000e+01 0.000000e+00
      vertex   2.000000e+02 0.000000e+00 0.000000e+00
    endloop
  endfacet
  facet normal 0.000000e+00 -0.000000e+00 -1.000000e+00
    outer loop
      vertex   6.387183e+01 3.000000e+00 0.000000e+00
      vertex   1.360955e+02 3.000000e+00 0.000000e+00
      vertex   0.000000e+00 0.000000e+00 0.000000e+00
    endloop
  endfacet
  facet normal 0.000000e+00 0.000000e+00 -1.000000e+00
    outer loop
      vertex   0.000000e+00 0.000000e+00 0.000000e+00
      vertex   1.360955e+02 3.000000e+00 0.000000e+00
      vertex   2.000000e+02 0.000000e+00 0.000000e+00
    endloop
  endfacet
endsolid
